# xmcd
#
# Track frame offsets:
#	150
#	65151
#	126044
#	161587
#	178432
#	222433
#	272836
#	309196
#
# Disc length: 4427 seconds
#
# Revision: 1
# Processed by: cddbd v1.5.2PL0 Copyright (c) Steve Scherf et al.
# Submitted via: audiograbber 1.83.01
#
DISCID=7a114908
DTITLE=Grateful Dead - 79-11-10 Crisler Arena, Ann Arbor MI
DYEAR=1900
DGENRE=
TTITLE0=Terrapin Station
TTITLE1=Playing In The Band
TTITLE2=Drums
TTITLE3=Space
TTITLE4=Not Fade Away
TTITLE5=Black Peter
TTITLE6=Sugar Magnolia
TTITLE7=One More Saturday Night
EXTD=
EXTT0=
EXTT1=
EXTT2=
EXTT3=
EXTT4=
EXTT5=
EXTT6=
EXTT7=
PLAYORDER=
